<svg xmlns="http://www.w3.org/2000/svg"  viewBox="0 0 48 48" width="48px" height="48px" baseProfile="basic"><path d="M42,22c0-9.312-2.046-20-18-20S6,12.688,6,22c0,0.238,0,1.574,0,2c0,11.72,8.411,22,18,22s18-10.28,18-22	C42,23.574,42,22.238,42,22z"/><path fill="#fff" d="M41,22c0,10.493-7.611,21-17,21S7,32.493,7,22S10,3,24,3S41,11.507,41,22z"/><path d="M24,44C14.411,44,6,33.72,6,22C6,12.688,8.046,2,24,2s18,10.688,18,20C42,33.72,33.589,44,24,44z M24,4	C12.785,4,8,9.383,8,22c0,9.441,6.843,20,16,20s16-10.559,16-20C40,9.383,35.215,4,24,4z"/><path d="M24,20c-8,0-17,1-17,1l1,9c0,0,7,0,9,0c4,0,5-1,7-1s3,1,7,1c2,0,9,0,9,0l1-9C41,21,32,20,24,20z M17,27	c-1.657,0-3-2.343-3-4l6,1C20,25.657,18.657,27,17,27z M32,27c-1.657,0-3-1.343-3-3l6-1C35,24.657,33.657,27,32,27z"/><path d="M33.485,10.847c-1.32-2.549-5.315-7.095-9.995-8.74l-0.664,1.887c3.619,1.273,6.847,4.583,8.344,6.849	c-2.465,0.017-4.713,0.1-6.759,0.229c-4.108-2.775-7.522-4.632-11.048-6.004l-0.725,1.863c2.753,1.072,5.453,2.468,8.508,4.397	c-9.189,0.879-13.301,2.646-13.785,2.757l0.811,1.829c0.322-0.039,9.352-3.893,30.784-2.916l0.09-1.998	C37.089,10.912,35.24,10.864,33.485,10.847z"/><path d="M10.451,32.212l-1.072,1.688c6.027,3.831,13.463,5.92,20.845,5.92c1.173,0,2.344-0.053,3.659-0.159l-0.184-1.992	C25.493,38.407,17.07,36.419,10.451,32.212z"/><path d="M37.336,32.852c-8.74,0.837-16.152-3.094-19.203-5.026l-1.746,1.258c2.509,1.709,9.54,5.887,18.31,5.887	c0.862,0,1.742-0.041,2.833-0.128L37.336,32.852z"/></svg>